<svg xmlns="http://www.w3.org/2000/svg" xmlns:xlink="http://www.w3.org/1999/xlink" viewBox="0 0 32 32" fill="#5B5B5B">
  <path d="M5 3L5 29L17.771484 29C19.240982 30.824972 21.488603 32 24 32C28.4 32 32 28.4 32 24C32 19.939374 28.931363 16.567445 25 16.070312L25 15.414062L27 13.414062L27 3L23 3L22 3L5 3 z M 7 5L21 5L21 13.414062L23 15.414062L23 16.070312C19.068637 16.567445 16 19.939374 16 24C16 25.06037 16.212827 26.071744 16.591797 27L7 27L7 5 z M 23 5L25 5L25 12.585938L24 13.585938L23 12.585938L23 5 z M 24 18C27.3 18 30 20.7 30 24C30 27.3 27.3 30 24 30C20.7 30 18 27.3 18 24C18 20.7 20.7 18 24 18 z M 23 20L23 23L20 23L20 25L23 25L23 28L25 28L25 25L28 25L28 23L25 23L25 20L23 20 z" fill="#5B5B5B" />
</svg>