<svg xmlns="http://www.w3.org/2000/svg" xmlns:xlink="http://www.w3.org/1999/xlink" viewBox="0 0 32 32" fill="#5B5B5B">
  <path d="M8.28125 5.28125L2.28125 11.28125L1.59375 12L2.28125 12.71875L8.28125 18.71875L9.71875 17.28125L5.4375 13L23 13C25.753906 13 28 15.246094 28 18C28 20.753906 25.753906 23 23 23L20 23L20 25L23 25C26.84375 25 30 21.84375 30 18C30 14.15625 26.84375 11 23 11L5.4375 11L9.71875 6.71875 Z M 8 23L8 25L10 25L10 23 Z M 12 23L12 25L14 25L14 23 Z M 16 23L16 25L18 25L18 23Z" fill="#5B5B5B" />
</svg>